{
    "asset" : {
        "copyright" : "W3WYM",
        "extensions" : {
            "ASOBO_normal_map_convention" : {
                "tangent_space_convention" : "DirectX"
            }
        },
        "generator" : "Extended Khronos glTF Blender I/O v1.0.0",
        "version" : "2.0"
    },
    "extensionsUsed" : [
        "ASOBO_normal_map_convention"
    ],
    "scene" : 0,
    "scenes" : [
        {
            "name" : "Scene",
            "nodes" : [
                0
            ]
        }
    ],
    "nodes" : [
        {
            "mesh" : 0,
            "name" : "Cube"
        }
    ],
    "materials" : [
        {
            "alphaMode" : "BLEND",
            "emissiveFactor" : [
                0,
                0,
                0
            ],
            "name" : "Material",
            "pbrMetallicRoughness" : {
                "baseColorFactor" : [
                    1,
                    0.9751599431037903,
                    0.9028158783912659,
                    1
                ],
                "metallicFactor" : 0,
                "roughnessFactor" : 0.5
            }
        }
    ],
    "meshes" : [
        {
            "name" : "Cube",
            "primitives" : [
                {
                    "attributes" : {
                        "POSITION" : 0,
                        "NORMAL" : 1,
                        "TEXCOORD_0" : 2
                    },
                    "indices" : 3,
                    "material" : 0
                }
            ]
        }
    ],
    "accessors" : [
        {
            "bufferView" : 0,
            "componentType" : 5126,
            "count" : 24,
            "max" : [
                1,
                1,
                1
            ],
            "min" : [
                -1,
                -1,
                -1
            ],
            "type" : "VEC3"
        },
        {
            "bufferView" : 1,
            "componentType" : 5126,
            "count" : 24,
            "type" : "VEC3"
        },
        {
            "bufferView" : 2,
            "componentType" : 5126,
            "count" : 24,
            "type" : "VEC2"
        },
        {
            "bufferView" : 3,
            "componentType" : 5123,
            "count" : 36,
            "type" : "SCALAR"
        }
    ],
    "bufferViews" : [
        {
            "buffer" : 0,
            "byteLength" : 288,
            "byteOffset" : 0
        },
        {
            "buffer" : 0,
            "byteLength" : 288,
            "byteOffset" : 288
        },
        {
            "buffer" : 0,
            "byteLength" : 192,
            "byteOffset" : 576
        },
        {
            "buffer" : 0,
            "byteLength" : 72,
            "byteOffset" : 768
        }
    ],
    "buffers" : [
        {
            "byteLength" : 840,
            "uri" : "W3WYM_Test_Cube.bin"
        }
    ]
}
