{
    "asset" : {
        "copyright" : "W3WYM",
        "extensions" : {
            "ASOBO_normal_map_convention" : {
                "tangent_space_convention" : "DirectX"
            }
        },
        "generator" : "Extended Khronos glTF Blender I/O v1.0.0",
        "version" : "2.0"
    },
    "extensionsUsed" : [
        "ASOBO_normal_map_convention"
    ],
    "scene" : 0,
    "scenes" : [
        {
            "name" : "Scene",
            "nodes" : [
                0
            ]
        }
    ],
    "nodes" : [
        {
            "mesh" : 0,
            "name" : "capitol",
            "rotation" : [
                0.7071068286895752,
                0,
                0,
                0.7071067094802856
            ],
            "translation" : [
                0,
                0,
                250.0756378173828
            ]
        }
    ],
    "materials" : [
        {
            "emissiveFactor" : [
                0,
                0,
                0
            ],
            "name" : "White_porcelain0",
            "pbrMetallicRoughness" : {
                "baseColorFactor" : [
                    0.8688864707946777,
                    0.7710444331169128,
                    0.6289765238761902,
                    1
                ],
                "metallicFactor" : 0,
                "roughnessFactor" : 0.5
            }
        }
    ],
    "meshes" : [
        {
            "name" : "capitol",
            "primitives" : [
                {
                    "attributes" : {
                        "POSITION" : 0,
                        "NORMAL" : 1
                    },
                    "indices" : 2,
                    "material" : 0
                }
            ]
        }
    ],
    "accessors" : [
        {
            "bufferView" : 0,
            "componentType" : 5126,
            "count" : 46182,
            "max" : [
                115.50700378417969,
                -182.08399963378906,
                0.0009002690203487873
            ],
            "min" : [
                -115.50700378417969,
                -290.8940124511719,
                -75.99909973144531
            ],
            "type" : "VEC3"
        },
        {
            "bufferView" : 1,
            "componentType" : 5126,
            "count" : 46182,
            "type" : "VEC3"
        },
        {
            "bufferView" : 2,
            "componentType" : 5123,
            "count" : 123777,
            "type" : "SCALAR"
        }
    ],
    "bufferViews" : [
        {
            "buffer" : 0,
            "byteLength" : 554184,
            "byteOffset" : 0
        },
        {
            "buffer" : 0,
            "byteLength" : 554184,
            "byteOffset" : 554184
        },
        {
            "buffer" : 0,
            "byteLength" : 247554,
            "byteOffset" : 1108368
        }
    ],
    "buffers" : [
        {
            "byteLength" : 1355924,
            "uri" : "W3WYM_US_Capitol_Buidling.bin"
        }
    ]
}
