{"accessors":[{"bufferView":0,"componentType":5126,"count":40,"min":[-18.714019775390626,0.036145031452178958,-18.714019775390626],"max":[18.714019775390626,338.96221923828127,18.714019775390626],"type":"VEC3","name":"Cube_vertices#0_POSITION"},{"bufferView":0,"byteOffset":12,"componentType":5120,"count":40,"type":"VEC4","name":"Cube_vertices#0_TANGENT"},{"bufferView":0,"byteOffset":16,"componentType":5120,"count":40,"type":"VEC4","name":"Cube_vertices#0_NORMAL"},{"bufferView":0,"byteOffset":20,"componentType":5122,"count":40,"type":"VEC2","name":"Cube_vertices#0_TEXCOORD_0"},{"bufferView":0,"byteOffset":24,"componentType":5122,"count":40,"type":"VEC2","name":"Cube_vertices#0_TEXCOORD_1"},{"bufferView":0,"byteOffset":28,"componentType":5123,"count":40,"type":"VEC4","name":"Cube_vertices#0_COLOR_0"},{"bufferView":1,"componentType":5123,"count":60,"type":"SCALAR","name":"Cube_indices#0"}],"asset":{"generator":"Extended Khronos glTF Blender I/O v1.0.0","copyright":"W3WYM","version":"2.0","extensions":{"ASOBO_asset_optimized":{"BoundingBoxMax":[18.714019775390626,338.96221923828127,18.714019775390626],"BoundingBoxMin":[-18.714019775390626,0.036145031452178958,-18.714019775390626],"MajorVersion":4,"MinorVersion":2},"ASOBO_normal_map_convention":{"tangent_space_convention":"DirectX"}}},"bufferViews":[{"buffer":0,"byteLength":1440,"byteStride":36,"byteOffset":96,"target":34962,"name":"BufferViewVertexND"},{"buffer":0,"byteLength":120,"byteOffset":1544,"target":34963,"name":"BufferViewIndex"}],"extensionsUsed":["ASOBO_normal_map_convention","ASOBO_asset_optimized"],"materials":[{"name":"Material","pbrMetallicRoughness":{"baseColorFactor":[0.5173338651657105,0.46653491258621218,0.30086344480514529,1.0],"metallicFactor":0.0,"roughnessFactor":0.5}}],"meshes":[{"primitives":[{"attributes":{"COLOR_0":5,"NORMAL":2,"POSITION":0,"TANGENT":1,"TEXCOORD_0":3,"TEXCOORD_1":4},"indices":6,"material":0,"mode":4,"extras":{"ASOBO_primitive":{"PrimitiveCount":20,"VertexType":"VTX","VertexVersion":2}}}],"name":"Cube"}],"nodes":[{"mesh":0,"name":"Cube"}],"scene":0,"scenes":[{"nodes":[0],"name":"Scene"}],"buffers":[{"byteLength":1664,"uri":"W3WYM_Washington_Monument.bin"}]}
