{
    "asset" : {
        "copyright" : "W3WYM",
        "extensions" : {
            "ASOBO_normal_map_convention" : {
                "tangent_space_convention" : "DirectX"
            }
        },
        "generator" : "Extended Khronos glTF Blender I/O v1.0.0",
        "version" : "2.0"
    },
    "extensionsUsed" : [
        "ASOBO_normal_map_convention"
    ],
    "scene" : 0,
    "scenes" : [
        {
            "name" : "Scene",
            "nodes" : [
                0
            ]
        }
    ],
    "nodes" : [
        {
            "mesh" : 0,
            "name" : "10090_white_house_v1_L1",
            "rotation" : [
                0.7071068286895752,
                0,
                0,
                0.7071067094802856
            ]
        }
    ],
    "materials" : [
        {
            "doubleSided" : true,
            "emissiveFactor" : [
                0.2939999997615814,
                0.2939999997615814,
                0.2939999997615814
            ],
            "name" : "Standard_19",
            "pbrMetallicRoughness" : {
                "baseColorTexture" : {
                    "index" : 0,
                    "texCoord" : 0
                },
                "metallicFactor" : 0,
                "roughnessFactor" : 0.8945907354354858
            }
        }
    ],
    "meshes" : [
        {
            "name" : "10090_white_house_v1_L1",
            "primitives" : [
                {
                    "attributes" : {
                        "POSITION" : 0,
                        "NORMAL" : 1,
                        "TEXCOORD_0" : 2
                    },
                    "indices" : 3,
                    "material" : 0
                }
            ]
        }
    ],
    "textures" : [
        {
            "source" : 0
        }
    ],
    "images" : [
        {
            "mimeType" : "image/jpeg",
            "name" : "10090_white_house_v1_diffuse",
            "uri" : "10090_white_house_v1_diffuse.jpg"
        }
    ],
    "accessors" : [
        {
            "bufferView" : 0,
            "componentType" : 5126,
            "count" : 26113,
            "max" : [
                1.0812386274337769,
                1.1198647022247314,
                -0.004654834046959877
            ],
            "min" : [
                -1.2832692861557007,
                -1.1201987266540527,
                -1.0630778074264526
            ],
            "type" : "VEC3"
        },
        {
            "bufferView" : 1,
            "componentType" : 5126,
            "count" : 26113,
            "type" : "VEC3"
        },
        {
            "bufferView" : 2,
            "componentType" : 5126,
            "count" : 26113,
            "type" : "VEC2"
        },
        {
            "bufferView" : 3,
            "componentType" : 5123,
            "count" : 50952,
            "type" : "SCALAR"
        }
    ],
    "bufferViews" : [
        {
            "buffer" : 0,
            "byteLength" : 313356,
            "byteOffset" : 0
        },
        {
            "buffer" : 0,
            "byteLength" : 313356,
            "byteOffset" : 313356
        },
        {
            "buffer" : 0,
            "byteLength" : 208904,
            "byteOffset" : 626712
        },
        {
            "buffer" : 0,
            "byteLength" : 101904,
            "byteOffset" : 835616
        }
    ],
    "buffers" : [
        {
            "byteLength" : 937520,
            "uri" : "W3WYM_White_House.bin"
        }
    ]
}
