{"accessors":[{"bufferView":0,"componentType":5126,"count":24,"min":[-1.0,-1.0,-1.0],"max":[1.0,1.0,1.0],"type":"VEC3","name":"Cube_vertices#0_POSITION"},{"bufferView":0,"byteOffset":12,"componentType":5120,"count":24,"type":"VEC4","name":"Cube_vertices#0_TANGENT"},{"bufferView":0,"byteOffset":16,"componentType":5120,"count":24,"type":"VEC4","name":"Cube_vertices#0_NORMAL"},{"bufferView":0,"byteOffset":20,"componentType":5122,"count":24,"type":"VEC2","name":"Cube_vertices#0_TEXCOORD_0"},{"bufferView":0,"byteOffset":24,"componentType":5122,"count":24,"type":"VEC2","name":"Cube_vertices#0_TEXCOORD_1"},{"bufferView":0,"byteOffset":28,"componentType":5123,"count":24,"type":"VEC4","name":"Cube_vertices#0_COLOR_0"},{"bufferView":1,"componentType":5123,"count":36,"type":"SCALAR","name":"Cube_indices#0"}],"asset":{"generator":"Extended Khronos glTF Blender I/O v1.0.0","copyright":"W3WYM","version":"2.0","extensions":{"ASOBO_asset_optimized":{"BoundingBoxMax":[1.0,1.0,1.0],"BoundingBoxMin":[-1.0,-1.0,-1.0],"MajorVersion":4,"MinorVersion":2},"ASOBO_normal_map_convention":{"tangent_space_convention":"DirectX"}}},"bufferViews":[{"buffer":0,"byteLength":864,"byteStride":36,"byteOffset":32,"target":34962,"name":"BufferViewVertexND"},{"buffer":0,"byteLength":72,"byteOffset":952,"target":34963,"name":"BufferViewIndex"}],"extensionsUsed":["ASOBO_normal_map_convention","ASOBO_asset_optimized"],"materials":[{"name":"Material","alphaMode":"BLEND","pbrMetallicRoughness":{"baseColorFactor":[1.0,0.9751599431037904,0.902815878391266,1.0],"metallicFactor":0.0,"roughnessFactor":0.5}}],"meshes":[{"primitives":[{"attributes":{"COLOR_0":5,"NORMAL":2,"POSITION":0,"TANGENT":1,"TEXCOORD_0":3,"TEXCOORD_1":4},"indices":6,"material":0,"mode":4,"extras":{"ASOBO_primitive":{"PrimitiveCount":12,"VertexType":"VTX","VertexVersion":2}}}],"name":"Cube"}],"nodes":[{"mesh":0,"name":"Cube"}],"scene":0,"scenes":[{"nodes":[0],"name":"Scene"}],"buffers":[{"byteLength":1024,"uri":"W3WYM_TEST_CUBE.bin"}]}
