{"accessors":[{"bufferView":0,"componentType":5126,"count":26167,"min":[-1.2832692861557007,-1.1201987266540528,-1.0630778074264527],"max":[1.0812386274337769,1.1198647022247315,-0.004654834046959877],"type":"VEC3","name":"10090_white_house_v1_L1_vertices#0_POSITION"},{"bufferView":0,"byteOffset":12,"componentType":5120,"count":26167,"type":"VEC4","name":"10090_white_house_v1_L1_vertices#0_TANGENT"},{"bufferView":0,"byteOffset":16,"componentType":5120,"count":26167,"type":"VEC4","name":"10090_white_house_v1_L1_vertices#0_NORMAL"},{"bufferView":0,"byteOffset":20,"componentType":5122,"count":26167,"type":"VEC2","name":"10090_white_house_v1_L1_vertices#0_TEXCOORD_0"},{"bufferView":0,"byteOffset":24,"componentType":5122,"count":26167,"type":"VEC2","name":"10090_white_house_v1_L1_vertices#0_TEXCOORD_1"},{"bufferView":0,"byteOffset":28,"componentType":5123,"count":26167,"type":"VEC4","name":"10090_white_house_v1_L1_vertices#0_COLOR_0"},{"bufferView":1,"componentType":5123,"count":50952,"type":"SCALAR","name":"10090_white_house_v1_L1_indices#0"}],"asset":{"generator":"Extended Khronos glTF Blender I/O v1.0.0","copyright":"W3WYM","version":"2.0","extensions":{"ASOBO_asset_optimized":{"BoundingBoxMax":[1.0812386274337769,1.1198647022247315,-0.004654834046959877],"BoundingBoxMin":[-1.2832692861557007,-1.1201987266540528,-1.0630778074264527],"MajorVersion":4,"MinorVersion":2},"ASOBO_normal_map_convention":{"tangent_space_convention":"DirectX"}}},"bufferViews":[{"buffer":0,"byteLength":942012,"byteStride":36,"byteOffset":68,"target":34962,"name":"BufferViewVertexND"},{"buffer":0,"byteLength":101904,"byteOffset":942192,"target":34963,"name":"BufferViewIndex"}],"extensionsUsed":["ASOBO_normal_map_convention","MSFT_texture_dds","ASOBO_asset_optimized"],"extensionsRequired":["MSFT_texture_dds"],"materials":[{"name":"Standard_19","doubleSided":true,"emissiveFactor":[0.2939999997615814,0.2939999997615814,0.2939999997615814],"pbrMetallicRoughness":{"metallicFactor":0.0,"roughnessFactor":0.8945907354354858,"baseColorTexture":{"index":0}}}],"meshes":[{"primitives":[{"attributes":{"COLOR_0":5,"NORMAL":2,"POSITION":0,"TANGENT":1,"TEXCOORD_0":3,"TEXCOORD_1":4},"indices":6,"material":0,"mode":4,"extras":{"ASOBO_primitive":{"PrimitiveCount":16984,"VertexType":"VTX","VertexVersion":2}}}],"name":"10090_white_house_v1_L1"}],"nodes":[{"rotation":[0.7071068286895752,0.0,0.0,0.7071067094802856],"mesh":0,"name":"10090_white_house_v1_L1"}],"scene":0,"scenes":[{"nodes":[0],"name":"Scene"}],"textures":[{"extensions":{"MSFT_texture_dds":{"source":0}}}],"buffers":[{"byteLength":1044096,"uri":"W3WYM_White_House.bin"}],"images":[{"uri":"10090_WHITE_HOUSE_V1_DIFFUSE.JPG.DDS","name":"10090_white_house_v1_diffuse","extras":"ASOBO_image_converted_meta"}]}
