{"accessors":[{"bufferView":0,"componentType":5126,"count":46215,"min":[-115.50700378417969,-290.8940124511719,-75.99909973144531],"max":[115.50700378417969,-182.08399963378907,0.0009002690203487873],"type":"VEC3","name":"capitol_vertices#0_POSITION"},{"bufferView":0,"byteOffset":12,"componentType":5120,"count":46215,"type":"VEC4","name":"capitol_vertices#0_TANGENT"},{"bufferView":0,"byteOffset":16,"componentType":5120,"count":46215,"type":"VEC4","name":"capitol_vertices#0_NORMAL"},{"bufferView":0,"byteOffset":20,"componentType":5122,"count":46215,"type":"VEC2","name":"capitol_vertices#0_TEXCOORD_0"},{"bufferView":0,"byteOffset":24,"componentType":5122,"count":46215,"type":"VEC2","name":"capitol_vertices#0_TEXCOORD_1"},{"bufferView":0,"byteOffset":28,"componentType":5123,"count":46215,"type":"VEC4","name":"capitol_vertices#0_COLOR_0"},{"bufferView":1,"componentType":5123,"count":123777,"type":"SCALAR","name":"capitol_indices#0"}],"asset":{"generator":"Extended Khronos glTF Blender I/O v1.0.0","copyright":"W3WYM","version":"2.0","extensions":{"ASOBO_asset_optimized":{"BoundingBoxMax":[115.50700378417969,-182.08399963378907,0.0009002690203487873],"BoundingBoxMin":[-115.50700378417969,-290.8940124511719,-75.99909973144531],"MajorVersion":4,"MinorVersion":2},"ASOBO_normal_map_convention":{"tangent_space_convention":"DirectX"}}},"bufferViews":[{"buffer":0,"byteLength":1663740,"byteStride":36,"byteOffset":4,"target":34962,"name":"BufferViewVertexND"},{"buffer":0,"byteLength":247554,"byteOffset":1663870,"target":34963,"name":"BufferViewIndex"}],"extensionsUsed":["ASOBO_normal_map_convention","ASOBO_asset_optimized"],"materials":[{"name":"White_porcelain0","pbrMetallicRoughness":{"baseColorFactor":[0.8688864707946777,0.7710444331169128,0.6289765238761902,1.0],"metallicFactor":0.0,"roughnessFactor":0.5}}],"meshes":[{"primitives":[{"attributes":{"COLOR_0":5,"NORMAL":2,"POSITION":0,"TANGENT":1,"TEXCOORD_0":3,"TEXCOORD_1":4},"indices":6,"material":0,"mode":4,"extras":{"ASOBO_primitive":{"PrimitiveCount":41259,"VertexType":"VTX","VertexVersion":2}}}],"name":"capitol"}],"nodes":[{"translation":[0.0,0.0,250.0756378173828],"rotation":[0.7071068286895752,0.0,0.0,0.7071067094802856],"mesh":0,"name":"capitol"}],"scene":0,"scenes":[{"nodes":[0],"name":"Scene"}],"buffers":[{"byteLength":1911424,"uri":"W3WYM_US_Capitol_Buidling.bin"}]}
